<mxfile host="app.diagrams.net" modified="2022-06-17T04:27:39.869Z" agent="5.0 (Windows NT 10.0; Win64; x64) AppleWebKit/537.36 (KHTML, like Gecko) Chrome/102.0.0.0 Safari/537.36" etag="nXG08lgUQV24hI8bP5Hq" version="20.0.1" type="github">
  <diagram id="Vk4T3AT9-JXEWLc-g8yJ" name="Page-1">
    <mxGraphModel dx="1422" dy="754" grid="1" gridSize="10" guides="1" tooltips="1" connect="1" arrows="1" fold="1" page="1" pageScale="1" pageWidth="827" pageHeight="1169" math="0" shadow="0">
      <root>
        <mxCell id="0" />
        <mxCell id="1" parent="0" />
        <mxCell id="DbG9cYsm_kkEWUzSwjJz-1" value="Actor" style="shape=umlActor;verticalLabelPosition=bottom;verticalAlign=top;html=1;outlineConnect=0;" vertex="1" parent="1">
          <mxGeometry x="70" y="100" width="30" height="60" as="geometry" />
        </mxCell>
        <mxCell id="DbG9cYsm_kkEWUzSwjJz-3" value="" style="endArrow=classic;html=1;rounded=0;entryX=0;entryY=0.5;entryDx=0;entryDy=0;" edge="1" parent="1" source="DbG9cYsm_kkEWUzSwjJz-1">
          <mxGeometry width="50" height="50" relative="1" as="geometry">
            <mxPoint x="390" y="410" as="sourcePoint" />
            <mxPoint x="310" y="130" as="targetPoint" />
          </mxGeometry>
        </mxCell>
        <mxCell id="DbG9cYsm_kkEWUzSwjJz-13" value="成功" style="edgeStyle=orthogonalEdgeStyle;rounded=0;orthogonalLoop=1;jettySize=auto;html=1;exitX=0.5;exitY=0;exitDx=0;exitDy=0;entryX=0.5;entryY=0;entryDx=0;entryDy=0;" edge="1" parent="1" source="DbG9cYsm_kkEWUzSwjJz-17" target="DbG9cYsm_kkEWUzSwjJz-7">
          <mxGeometry x="0.0538" relative="1" as="geometry">
            <mxPoint x="420" y="270" as="targetPoint" />
            <Array as="points">
              <mxPoint x="700" y="40" />
              <mxPoint x="350" y="40" />
            </Array>
            <mxPoint as="offset" />
          </mxGeometry>
        </mxCell>
        <mxCell id="DbG9cYsm_kkEWUzSwjJz-18" style="edgeStyle=orthogonalEdgeStyle;rounded=0;orthogonalLoop=1;jettySize=auto;html=1;exitX=1;exitY=0.5;exitDx=0;exitDy=0;entryX=0;entryY=0.5;entryDx=0;entryDy=0;" edge="1" parent="1" source="DbG9cYsm_kkEWUzSwjJz-4" target="DbG9cYsm_kkEWUzSwjJz-17">
          <mxGeometry relative="1" as="geometry" />
        </mxCell>
        <mxCell id="DbG9cYsm_kkEWUzSwjJz-4" value="获取未绑定大屏列表" style="rounded=1;whiteSpace=wrap;html=1;" vertex="1" parent="1">
          <mxGeometry x="470" y="105" width="120" height="50" as="geometry" />
        </mxCell>
        <mxCell id="DbG9cYsm_kkEWUzSwjJz-15" style="edgeStyle=orthogonalEdgeStyle;rounded=0;orthogonalLoop=1;jettySize=auto;html=1;exitX=0.5;exitY=1;exitDx=0;exitDy=0;entryX=0.5;entryY=0;entryDx=0;entryDy=0;" edge="1" parent="1" source="DbG9cYsm_kkEWUzSwjJz-5" target="DbG9cYsm_kkEWUzSwjJz-21">
          <mxGeometry relative="1" as="geometry">
            <mxPoint x="350" y="380" as="targetPoint" />
          </mxGeometry>
        </mxCell>
        <mxCell id="DbG9cYsm_kkEWUzSwjJz-5" value="获取设备信息" style="rounded=1;whiteSpace=wrap;html=1;" vertex="1" parent="1">
          <mxGeometry x="300" y="250" width="100" height="60" as="geometry" />
        </mxCell>
        <mxCell id="DbG9cYsm_kkEWUzSwjJz-8" value="是" style="edgeStyle=orthogonalEdgeStyle;rounded=0;orthogonalLoop=1;jettySize=auto;html=1;exitX=0.5;exitY=1;exitDx=0;exitDy=0;entryX=0.5;entryY=0;entryDx=0;entryDy=0;" edge="1" parent="1" source="DbG9cYsm_kkEWUzSwjJz-7" target="DbG9cYsm_kkEWUzSwjJz-5">
          <mxGeometry relative="1" as="geometry" />
        </mxCell>
        <mxCell id="DbG9cYsm_kkEWUzSwjJz-9" style="edgeStyle=orthogonalEdgeStyle;rounded=0;orthogonalLoop=1;jettySize=auto;html=1;exitX=1;exitY=0.5;exitDx=0;exitDy=0;entryX=0;entryY=0.5;entryDx=0;entryDy=0;" edge="1" parent="1" source="DbG9cYsm_kkEWUzSwjJz-7" target="DbG9cYsm_kkEWUzSwjJz-4">
          <mxGeometry relative="1" as="geometry" />
        </mxCell>
        <mxCell id="DbG9cYsm_kkEWUzSwjJz-10" value="否" style="edgeLabel;html=1;align=center;verticalAlign=middle;resizable=0;points=[];" vertex="1" connectable="0" parent="DbG9cYsm_kkEWUzSwjJz-9">
          <mxGeometry x="-0.1857" y="1" relative="1" as="geometry">
            <mxPoint y="1" as="offset" />
          </mxGeometry>
        </mxCell>
        <mxCell id="DbG9cYsm_kkEWUzSwjJz-7" value="&lt;span style=&quot;&quot;&gt;获取设备绑定状态&lt;/span&gt;" style="rhombus;whiteSpace=wrap;html=1;" vertex="1" parent="1">
          <mxGeometry x="310" y="90" width="80" height="80" as="geometry" />
        </mxCell>
        <mxCell id="DbG9cYsm_kkEWUzSwjJz-20" value="移动端投屏" style="edgeStyle=orthogonalEdgeStyle;rounded=0;orthogonalLoop=1;jettySize=auto;html=1;exitX=0;exitY=0.5;exitDx=0;exitDy=0;entryX=0.5;entryY=0;entryDx=0;entryDy=0;" edge="1" parent="1" source="DbG9cYsm_kkEWUzSwjJz-21" target="DbG9cYsm_kkEWUzSwjJz-19">
          <mxGeometry x="0.4286" relative="1" as="geometry">
            <mxPoint x="200" y="440" as="sourcePoint" />
            <mxPoint as="offset" />
          </mxGeometry>
        </mxCell>
        <mxCell id="DbG9cYsm_kkEWUzSwjJz-17" value="绑定大屏设备" style="rounded=1;whiteSpace=wrap;html=1;" vertex="1" parent="1">
          <mxGeometry x="650" y="105" width="100" height="50" as="geometry" />
        </mxCell>
        <mxCell id="DbG9cYsm_kkEWUzSwjJz-28" style="edgeStyle=orthogonalEdgeStyle;rounded=0;orthogonalLoop=1;jettySize=auto;html=1;exitX=0.5;exitY=1;exitDx=0;exitDy=0;entryX=0;entryY=0.5;entryDx=0;entryDy=0;fontFamily=Helvetica;fontSize=12;fontColor=default;" edge="1" parent="1" source="DbG9cYsm_kkEWUzSwjJz-19" target="DbG9cYsm_kkEWUzSwjJz-27">
          <mxGeometry relative="1" as="geometry" />
        </mxCell>
        <mxCell id="DbG9cYsm_kkEWUzSwjJz-19" value="通过ws连接，核实验证码" style="rounded=1;whiteSpace=wrap;html=1;" vertex="1" parent="1">
          <mxGeometry x="150" y="490" width="100" height="60" as="geometry" />
        </mxCell>
        <mxCell id="DbG9cYsm_kkEWUzSwjJz-21" value="&lt;span style=&quot;&quot;&gt;获取学生大屏显示信息&lt;/span&gt;" style="rhombus;whiteSpace=wrap;html=1;rounded=1;fontFamily=Helvetica;fontSize=12;fontColor=default;strokeColor=default;fillColor=default;" vertex="1" parent="1">
          <mxGeometry x="285" y="370" width="130" height="80" as="geometry" />
        </mxCell>
        <mxCell id="DbG9cYsm_kkEWUzSwjJz-29" style="edgeStyle=orthogonalEdgeStyle;rounded=0;orthogonalLoop=1;jettySize=auto;html=1;exitX=0.5;exitY=1;exitDx=0;exitDy=0;entryX=1;entryY=0.5;entryDx=0;entryDy=0;fontFamily=Helvetica;fontSize=12;fontColor=default;" edge="1" parent="1" source="DbG9cYsm_kkEWUzSwjJz-22" target="DbG9cYsm_kkEWUzSwjJz-27">
          <mxGeometry relative="1" as="geometry" />
        </mxCell>
        <mxCell id="DbG9cYsm_kkEWUzSwjJz-22" value="输入投屏码" style="rounded=1;whiteSpace=wrap;html=1;" vertex="1" parent="1">
          <mxGeometry x="470" y="490" width="100" height="60" as="geometry" />
        </mxCell>
        <mxCell id="DbG9cYsm_kkEWUzSwjJz-23" style="edgeStyle=orthogonalEdgeStyle;rounded=0;orthogonalLoop=1;jettySize=auto;html=1;exitX=1;exitY=0.5;exitDx=0;exitDy=0;entryX=0.5;entryY=0;entryDx=0;entryDy=0;" edge="1" parent="1" source="DbG9cYsm_kkEWUzSwjJz-21" target="DbG9cYsm_kkEWUzSwjJz-22">
          <mxGeometry relative="1" as="geometry">
            <mxPoint x="415" y="460" as="sourcePoint" />
            <mxPoint x="330" y="560" as="targetPoint" />
          </mxGeometry>
        </mxCell>
        <mxCell id="DbG9cYsm_kkEWUzSwjJz-24" value="笔记本投屏" style="edgeLabel;html=1;align=center;verticalAlign=middle;resizable=0;points=[];fontSize=12;fontFamily=Helvetica;fontColor=default;" vertex="1" connectable="0" parent="DbG9cYsm_kkEWUzSwjJz-23">
          <mxGeometry x="0.1846" y="-3" relative="1" as="geometry">
            <mxPoint x="3" y="30" as="offset" />
          </mxGeometry>
        </mxCell>
        <mxCell id="DbG9cYsm_kkEWUzSwjJz-27" value="打开播放器" style="rounded=1;whiteSpace=wrap;html=1;fontFamily=Helvetica;fontSize=12;fontColor=default;strokeColor=default;fillColor=default;" vertex="1" parent="1">
          <mxGeometry x="290" y="600" width="120" height="60" as="geometry" />
        </mxCell>
      </root>
    </mxGraphModel>
  </diagram>
</mxfile>
